<svg width="77px" height="106px" viewBox="0 0 77 106" version="1.1" xmlns="http://www.w3.org/2000/svg" xmlns:xlink="http://www.w3.org/1999/xlink">
    <g id="Page-1" stroke="none" stroke-width="1" fill="none" fill-rule="evenodd">
        <path d="M61.6315,0.7466 C66.6751667,0.7466 70.4631667,2.0318 72.9955,4.6022 C75.5279,7.1726 76.7941,10.9934 76.7941,16.0646 L76.7941,16.0646 L76.7941,90.09464 C76.7941,95.2002333 75.5279,99.02962 72.9955,101.5828 C70.4631667,104.136 66.6751667,105.4126 61.6315,105.4126 L61.6315,105.4126 L16.0109,105.4126 C10.9742333,105.4126 7.1966,104.136 4.678,101.5828 C2.15926667,99.02962 0.8999,95.2002333 0.8999,90.09464 L0.8999,90.09464 L0.8999,16.0646 C0.8999,10.9934 2.15926667,7.1726 4.678,4.6022 C7.1966,2.0318 10.9742333,0.7466 16.0109,0.7466 L16.0109,0.7466 Z M38.487305,67 C34.5552427,67 31.0206866,67.5741029 27.8836366,68.7223086 C24.7465866,69.8705144 22.0725972,71.3621162 19.8616683,73.1971143 C17.6507394,75.0321927 15.9543958,76.998763 14.7726375,79.096825 C13.5908792,81.1948749 13,83.1937743 13,85.093523 C13,86.2995512 13.4553215,87.2521377 14.3659645,87.9512826 C15.2765247,88.6504275 16.5412192,89 18.1600481,89 L18.1600481,89 L58.8079197,89 L59.1278764,88.995339 C60.5990986,88.9518367 61.7635971,88.6038179 62.6213716,87.9512826 C63.5404572,87.2521377 64,86.2995512 64,85.093523 C64,83.1937743 63.4102176,81.1948749 62.2306527,79.096825 C61.0511292,76.998763 59.3547855,75.0321927 57.1416218,73.1971143 C54.9284995,71.3621162 52.2491714,69.8705144 49.1036374,68.7223086 C45.9580207,67.5741029 42.4192432,67 38.487305,67 Z M38.9873486,35 C36.859318,35 34.8825373,35.5657934 33.0570064,36.6973803 C31.2314755,37.8289265 29.7645098,39.3686203 28.6561093,41.3164619 C27.5477498,43.2642627 26.9957217,45.4518927 27,47.8793521 C27,50.3368742 27.5531391,52.5574999 28.6593675,54.5412293 C29.7655959,56.5249994 31.2303894,58.0974037 33.0537482,59.2584422 C34.8771069,60.4194807 36.8549737,61 38.9873486,61 C41.1409119,61 43.1293524,60.4194807 44.9526702,59.2584422 C46.776029,58.0974037 48.239757,56.5197445 49.3438542,54.5254647 C50.4479514,52.5312256 51,50.2947946 51,47.8161716 C51,45.3676113 50.4468858,43.1757448 49.3406575,41.2405719 C48.2343881,39.3054398 46.7685085,37.7815716 44.9430186,36.6689674 C43.1174877,35.5563225 41.1322644,35 38.9873486,35 Z M51.3039,11.0757 L26.3489,11.0757 C25.4293667,11.0757 24.6464333,11.3988667 24.0001,12.0452 C23.3539,12.6915333 23.0308,13.4709 23.0308,14.3833 C23.0308,15.2683 23.3539,16.0339667 24.0001,16.6803 C24.6464333,17.3266333 25.4293667,17.6498 26.3489,17.6498 L26.3489,17.6498 L51.3039,17.6498 C52.2509,17.6498 53.0475667,17.3266333 53.6939,16.6803 C54.3402333,16.0339667 54.6634,15.2683 54.6634,14.3833 C54.6634,13.4709 54.3402333,12.6915333 53.6939,12.0452 C53.0475667,11.3988667 52.2509,11.0757 51.3039,11.0757 L51.3039,11.0757 Z" id="Combined-Shape" fill="#000000" fill-rule="nonzero"></path>
    </g>
</svg>