<svg width="1em" viewBox="0 0 33 30" version="1.1" xmlns="http://www.w3.org/2000/svg" xmlns:xlink="http://www.w3.org/1999/xlink">
<style>
    path {
        fill: black;
    }
    @media (prefers-color-scheme: dark) {
        path {
            fill: white;
        }
    }
</style>
<g id="Page-1" stroke="none" stroke-width="1" fill="none" fill-rule="evenodd">
    <g id="chevron_right" transform="translate(0.686508, 0.406860)" fill-rule="nonzero">
        <path d="M1.75149536,29.1862793 C1.99081421,29.1862793 2.21315002,29.1433868 2.41850281,29.0576019 C2.62385559,28.971817 2.80819702,28.8484497 2.9715271,28.6875 L16.0397644,15.913147 C16.4312439,15.5321045 16.6269836,15.0944824 16.6269836,14.6002808 C16.625885,14.3497925 16.574295,14.1099243 16.4722137,13.8806763 C16.3701324,13.6514282 16.2259827,13.4484558 16.0397644,13.271759 L2.9715271,0.514709473 C2.62838745,0.171569824 2.22171021,0 1.75149536,0 C1.41897583,0 1.12179565,0.0775909424 0.859954834,0.232772827 C0.598114014,0.387954712 0.389328003,0.596191406 0.233596802,0.85748291 C0.0778656006,1.11877441 0,1.41513062 0,1.74655151 C0,2.21896362 0.173034668,2.63186646 0.519104004,2.98526001 L13.2673645,15.4368896 L13.2673645,13.7427979 L0.519104004,26.2136536 C0.173034668,26.5692444 0,26.9832458 0,27.455658 C0,27.7870789 0.0778656006,28.0834808 0.233596802,28.3448639 C0.389328003,28.6062469 0.598114014,28.8118286 0.859954834,28.9616089 C1.12179565,29.1113892 1.41897583,29.1862793 1.75149536,29.1862793 Z M16.7514954,29.1862793 C16.9908142,29.1862793 17.21315,29.1433868 17.4185028,29.0576019 C17.6238556,28.971817 17.8135071,28.8484497 17.9874573,28.6875 L31.0397644,15.913147 C31.4312439,15.5321045 31.6269836,15.0944824 31.6269836,14.6002808 C31.625885,14.3497925 31.574295,14.1099243 31.4722137,13.8806763 C31.3701324,13.6514282 31.2259827,13.4484558 31.0397644,13.271759 L17.9715271,0.514709473 C17.6283875,0.171569824 17.2217102,0 16.7514954,0 C16.4200745,0 16.1231689,0.0775909424 15.8607788,0.232772827 C15.5983887,0.387954712 15.389328,0.596191406 15.2335968,0.85748291 C15.0778656,1.11877441 15,1.41513062 15,1.74655151 C15,2.21896362 15.1736755,2.63186646 15.5210266,2.98526001 L28.2673645,15.4368896 L28.2673645,13.7427979 L15.5210266,26.2136536 C15.1736755,26.5692444 15,26.9832458 15,27.455658 C15,27.7870789 15.0778656,28.0834808 15.2335968,28.3448639 C15.389328,28.6062469 15.5983887,28.8118286 15.8607788,28.9616089 C16.1231689,29.1113892 16.4200745,29.1862793 16.7514954,29.1862793 Z" id="Shape"></path>
    </g>
</g>
</svg>