<svg width="647px" height="847px" viewBox="0 0 647 847" version="1.1" xmlns="http://www.w3.org/2000/svg" xmlns:xlink="http://www.w3.org/1999/xlink">
    <style>
        path {
            fill: black;
        }
        #inverse {
            fill: white;
        }
        @media (prefers-color-scheme: dark) {
            path {
                fill: white;
            }
            #inverse {
                fill: black;
            }
        }
    </style>
    <g id="Page-1" stroke="none" stroke-width="1" fill="none" fill-rule="evenodd">
        <g id="work" transform="translate(403.000000, 605.000000)">
            <path d="M202,0 C224.091187,0 242,17.908813 242,40 L242,40 L242,202 C242,224.091187 224.091187,242 202,242 L202,242 L40,242 C17.908813,242 0,224.091187 0,202 L0,202 L0,40 C0,17.908813 17.908813,0 40,0 L40,0 Z M98.760193,137.498779 L32.616272,137.498779 L32.616272,187.106689 C32.616272,195.925903 40.336487,203.6427 49.152222,203.6427 L192.46405,203.6427 C201.279785,203.6427 209,195.922485 209,187.106689 L209,137.498779 L142.856079,137.498779 L142.856079,154.03479 C142.856079,157.081543 140.390869,159.546753 137.344116,159.546753 L104.272156,159.546753 C101.24054,159.546753 98.760193,157.066345 98.760193,154.03479 L98.760193,137.498779 Z M148.368103,38.282959 L93.248169,38.282959 C84.428955,38.282959 76.712219,46.003174 76.712219,54.818909 L76.712219,71.354858 L49.152222,71.354858 C40.336487,71.354858 32.616272,79.071655 32.616272,87.890869 L32.616272,126.474792 L209,126.474792 L209,87.890869 C209,79.071655 201.283203,71.354858 192.46405,71.354858 L164.904053,71.354858 L164.904053,54.818909 C164.904053,46.003174 157.187256,38.282959 148.368103,38.282959 Z M148.368103,54.818909 L148.368103,71.354858 L93.248169,71.354858 L93.248169,54.818909 L148.368103,54.818909 Z" id="Combined-Shape"></path>
        </g>
        <g id="personal" transform="translate(405.000000, 304.000000)">
            <path d="M202,0 C224.091187,0 242,17.908813 242,40 L242,40 L242,202 C242,224.091187 224.091187,242 202,242 L202,242 L40,242 C17.908813,242 0,224.091187 0,202 L0,202 L0,40 C0,17.908813 17.908813,0 40,0 L40,0 Z M137.151367,136.665894 L104.444153,136.665894 C73.578735,136.665894 48.545105,161.696289 48.545105,192.564941 C48.545105,198.738647 53.551208,203.747939 59.724915,203.747939 L181.877075,203.747939 C188.050781,203.757629 193.050415,198.757996 193.050415,192.564941 C193.050415,161.696289 168.02002,136.665894 137.151367,136.665894 Z M120.797729,38.608704 C97.993042,38.608704 79.510498,57.094421 79.510498,79.895935 C79.510498,102.697449 97.993042,121.183167 120.797729,121.183167 C143.602478,121.183167 162.084961,102.697449 162.084961,79.895935 C162.084961,57.094421 143.602478,38.608704 120.797729,38.608704 Z" id="Combined-Shape"></path>
        </g>
        <g id="drive" transform="translate(404.000000, 3.000000)">
            <path d="M202,0 C224.091187,0 242,17.908813 242,40 L242,40 L242,202 C242,224.091187 224.091187,242 202,242 L202,242 L40,242 C17.908813,242 0,224.091187 0,202 L0,202 L0,40 C0,17.908813 17.908813,0 40,0 L40,0 Z M152.019775,44.3573 L89.596497,44.3573 C75.540894,44.3573 63.025208,53.238525 58.384827,66.505188 L58.384827,66.505188 L46.261902,101.130859 C38.252258,104.438049 32.616272,112.327087 32.616272,121.525208 L32.616272,121.525208 L32.616272,187.669128 C32.616272,193.766724 37.552917,198.693115 43.640259,198.693115 L43.640259,198.693115 L54.664246,198.693115 C60.751526,198.693115 65.688232,193.766724 65.688232,187.669128 L65.688232,187.669128 L65.688232,171.133118 L175.92804,171.133118 L175.92804,187.669128 C175.92804,193.766724 180.85437,198.693115 186.952026,198.693115 L186.952026,198.693115 L197.976013,198.693115 C204.073669,198.693115 209,193.766724 209,187.669128 L209,187.669128 L209,121.525208 C209,112.327087 203.35022,104.438049 195.357788,101.130859 L195.357788,101.130859 L183.231445,66.505188 C178.580688,53.238525 166.075378,44.3573 152.019775,44.3573 L152.019775,44.3573 Z M65.688232,121.525208 C71.785828,121.525208 76.712219,126.451538 76.712219,132.549194 C76.712219,138.646851 71.785828,143.573181 65.688232,143.573181 C59.600891,143.573181 54.664246,138.646851 54.664246,132.549194 C54.664246,126.451538 59.600891,121.525208 65.688232,121.525208 Z M175.92804,121.525208 C182.025696,121.525208 186.952026,126.451538 186.952026,132.549194 C186.952026,138.646851 182.025696,143.573181 175.92804,143.573181 C169.830383,143.573181 164.904053,138.646851 164.904053,132.549194 C164.904053,126.451538 169.830383,121.525208 175.92804,121.525208 Z M152.019775,66.405273 C156.704956,66.405273 160.873413,69.367981 162.423645,73.777588 L162.423645,73.777588 L171.4151,99.477234 L70.201172,99.477234 L79.192566,73.777588 C80.742859,69.367981 84.911255,66.405273 89.596497,66.405273 L89.596497,66.405273 Z" id="Combined-Shape"></path>
        </g>
        <g id="sleep" transform="translate(2.000000, 601.000000)">
            <path d="M202,0 C224.091187,0 242,17.908813 242,40 L242,40 L242,202 C242,224.091187 224.091187,242 202,242 L202,242 L40,242 C17.908798,242 0,224.091187 0,202 L0,202 L0,40 C0,17.908813 17.908798,0 40,0 L40,0 Z M187.335785,109.821533 L55.047974,109.821533 C42.859573,109.821533 33,119.674194 33,131.869507 L33,192.501404 C33,195.567444 35.454559,198.013428 38.511993,198.013428 L49.53598,198.013428 C52.595139,198.013428 55.047974,195.567444 55.047974,192.501404 L55.047974,175.965454 L187.335785,175.965454 L187.335785,192.501404 C187.335785,195.558838 189.790344,198.013428 192.847778,198.013428 L203.871735,198.013428 C206.929169,198.013428 209.383728,195.558838 209.383728,192.501404 L209.383728,131.869507 C209.383728,119.674194 199.531067,109.821533 187.335785,109.821533 Z M187.335785,43.677612 L55.047974,43.677612 C48.97789,43.677612 44.023987,48.631592 44.023987,54.70166 L44.023987,98.797546 L60.559952,98.797546 L60.559952,87.77356 C60.559952,81.703491 65.513855,76.749634 71.583954,76.749634 L104.655884,76.749634 C110.725983,76.749634 115.679871,81.703491 115.679871,87.77356 L115.679871,98.797546 L126.703857,98.797546 L126.703857,87.77356 C126.703857,81.703491 131.657776,76.749634 137.727844,76.749634 L170.799805,76.749634 C176.869873,76.749634 181.823792,81.703491 181.823792,87.77356 L181.823792,98.797546 L198.359741,98.797546 L198.359741,54.70166 C198.359741,48.631592 193.405853,43.677612 187.335785,43.677612 Z" id="Combined-Shape"></path>
        </g>
        <g id="fitness" transform="translate(1.000000, 301.000000)">
            <path d="M202,0 C224.091187,0 242,17.908813 242,40 L242,40 L242,202 C242,224.091187 224.091187,242 202,242 L202,242 L40,242 C17.908798,242 0,224.091187 0,202 L0,202 L0,40 C0,17.908813 17.908798,0 40,0 L40,0 Z M103.13916,66.055115 C95.945984,66.055115 88.90097,68.401123 83.068604,72.869324 L69.378204,83.393738 C66.556732,85.529663 65.075409,88.802429 65.075409,92.109619 C65.075409,98.004028 69.784698,103.140503 76.106262,103.140503 C78.45163,103.140503 80.815582,102.397034 82.81369,100.861267 L96.466187,90.395386 C98.505615,88.849243 100.94812,88.057251 103.194275,88.057251 C103.88913,88.057251 104.565735,88.132935 105.206482,88.2854 L110.243073,89.749573 L97.324341,119.89325 C96.111359,122.666748 95.56015,125.594971 95.56015,128.48877 C95.56015,136.098755 99.518463,143.481384 106.415344,147.536133 L135.697784,164.805908 L126.22406,195.035706 C125.88385,196.12915 125.721771,197.236389 125.721771,198.325684 C125.721771,203.028076 128.738556,207.389465 133.459229,208.860474 C134.523041,209.204956 135.659882,209.377197 136.727844,209.377197 C141.419922,209.377197 145.770966,206.362854 147.235077,201.625977 L158.172943,166.831543 C158.590118,165.357788 158.791656,163.860229 158.791656,162.377197 C158.791656,156.668823 155.807953,151.17749 150.678711,148.101074 L129.619446,135.657837 L140.38504,108.655945 L147.361176,122.952637 C150.128876,128.557678 155.985352,132.209351 161.910767,132.209351 L180.823792,132.209351 C186.89386,132.209351 191.847778,127.255432 191.847778,121.185364 C191.847778,115.087708 186.886963,110.161377 180.823792,110.161377 L165.665802,110.161377 L156.66748,91.816772 C152.361237,83.032043 144.479095,76.572693 135.394623,74.247314 L110.890381,66.971497 C108.306641,66.354797 105.412842,66.055115 103.13916,66.055115 Z M87.740021,142.37207 L82.606964,154.257324 L59.559952,154.257324 C53.489883,154.257324 48.53598,159.211182 48.53598,165.281311 C48.53598,171.351379 53.489883,176.305298 59.559952,176.305298 L86.258667,176.305298 C92.890289,176.305298 98.832916,172.343506 101.416656,166.273438 L104.474091,159.211182 L100.770721,157.058105 C94.8367,153.533875 90.427124,148.331909 87.740021,142.37207 Z M142.239838,32.993469 C133.110596,32.993469 125.703857,40.400208 125.703857,49.52948 C125.703857,58.658691 133.110596,66.06543 142.239838,66.06543 C151.36908,66.06543 158.775818,58.658691 158.775818,49.52948 C158.775818,40.400208 151.36908,32.993469 142.239838,32.993469 Z" id="Combined-Shape"></path>
        </g>
        <g id="dnd">
            <path d="M202,0 C224.091187,0 242,17.908813 242,40 L242,40 L242,202 C242,224.091187 224.091187,242 202,242 L202,242 L40,242 C17.908798,242 0,224.091187 0,202 L0,202 L0,40 C0,17.908813 17.908798,0 40,0 L40,0 Z M128.628662,44.3573 C86.082977,44.3573 51.529678,78.87616 51.529678,121.525208 C51.529678,164.105347 86.014069,198.693115 128.628662,198.693115 C152.399109,198.693115 174.137054,187.875793 188.506104,170.116882 C190.631683,167.489685 188.316986,163.655762 185.023224,164.277588 C147.614044,171.408752 113.263977,142.711914 113.263977,104.920349 C113.263977,83.147949 124.908081,63.132568 143.848297,52.34491 C146.766571,50.687866 146.031403,46.26001 142.718689,45.647827 C138.860291,44.931946 132.542175,44.3573 128.628662,44.3573 Z" id="Combined-Shape"></path>
        </g>
    </g>
</svg>