<svg width="647px" height="847px" viewBox="0 0 647 847" version="1.1" xmlns="http://www.w3.org/2000/svg" xmlns:xlink="http://www.w3.org/1999/xlink">
    <style>
        path {
            fill: black;
        }
        @media (prefers-color-scheme: dark) {
            path {
                fill: white;
            }
        }
    </style>
    <g id="Page-1" stroke="none" stroke-width="1" fill="none" fill-rule="evenodd">
        <g id="focuscuts-menubar">
            <path d="M444,605 C421.908813,605 404,622.908813 404,645 L404,807 C404,829.091187 421.908813,847 444,847 L606,847 C628.091187,847 646,829.091187 646,807 L646,645 C646,622.908813 628.091187,605 606,605 L444,605 Z" id="2-3"></path>
            <path d="M445,304 C422.908813,304 405,321.908813 405,344 L405,506 C405,528.091187 422.908813,546 445,546 L607,546 C629.091187,546 647,528.091187 647,506 L647,344 C647,321.908813 629.091187,304 607,304 L445,304 Z" id="2-2"></path>
            <path d="M444,3 C421.908813,3 404,20.908813 404,43 L404,205 C404,227.091187 421.908813,245 444,245 L606,245 C628.091187,245 646,227.091187 646,205 L646,43 C646,20.908813 628.091187,3 606,3 L444,3 Z" id="2-1"></path>
            <path d="M42,601 C19.908798,601 2,618.908813 2,641 L2,803 C2,825.091187 19.908798,843 42,843 L204,843 C226.091187,843 244,825.091187 244,803 L244,641 C244,618.908813 226.091187,601 204,601 L42,601 Z" id="1-3"></path>
            <path d="M41,301 C18.908798,301 1,318.908813 1,341 L1,503 C1,525.091187 18.908798,543 41,543 L203,543 C225.091187,543 243,525.091187 243,503 L243,341 C243,318.908813 225.091187,301 203,301 L41,301 Z" id="1-2"></path>
            <path d="M40,0 C17.908798,0 0,17.908813 0,40 L0,202 C0,224.091187 17.908798,242 40,242 L202,242 C224.091187,242 242,224.091187 242,202 L242,40 C242,17.908813 224.091187,0 202,0 L40,0 Z" id="1-1"></path>
        </g>
    </g>
</svg>